<svg xmlns="http://www.w3.org/2000/svg" viewBox="0 0 660 526.8" width="660" height="526.8" role="img" aria-labelledby="the-msvg-package-ecosystem-d-title the-msvg-package-ecosystem-d-desc"><title id="the-msvg-package-ecosystem-d-title">The MSVG package ecosystem</title><desc id="the-msvg-package-ecosystem-d-desc">How the MSVG packages connect, from authoring through rendering to integrations.</desc><rect width="660" height="526.8" fill="#0f0f11"/><defs><marker id="the-msvg-package-ecosystem-d-arrow" markerWidth="8" markerHeight="8" refX="6" refY="3" orient="auto"><path d="M0,0 L0,6 L8,3 z" fill="#5a5a6e"/></marker></defs><rect x="20" y="20" width="200" height="225.14999999999998" rx="14" ry="14" fill="#24242b" stroke="#383845" stroke-width="1.5" stroke-dasharray="6,4"/><text x="32" y="36" font-size="12" font-family="system-ui, -apple-system, &#39;Segoe UI&#39;, sans-serif" fill="#9090a8" font-weight="600">Authoring</text><rect x="230" y="20" width="410" height="124.69999999999999" rx="14" ry="14" fill="#24242b" stroke="#383845" stroke-width="1.5" stroke-dasharray="6,4"/><text x="242" y="36" font-size="12" font-family="system-ui, -apple-system, &#39;Segoe UI&#39;, sans-serif" fill="#9090a8" font-weight="600">Rendering</text><rect x="20" y="140.7" width="410" height="366.09999999999997" rx="14" ry="14" fill="#24242b" stroke="#383845" stroke-width="1.5" stroke-dasharray="6,4"/><text x="32" y="156.7" font-size="12" font-family="system-ui, -apple-system, &#39;Segoe UI&#39;, sans-serif" fill="#9090a8" font-weight="600">Integrations</text><path d="M 200 72.225 C 225 72.225, 225 82.35, 250 82.35" marker-end="url(#the-msvg-package-ecosystem-d-arrow)" fill="none" stroke="#5a5a6e" stroke-width="1.5"/><rect x="203" y="69.2875" width="44" height="16" rx="3" fill="#0f0f11" opacity="0.85"/><text x="225" y="82.2875" text-anchor="middle" font-size="12" font-family="system-ui, -apple-system, &#39;Segoe UI&#39;, sans-serif" fill="#9090a8">parse</text><path d="M 200 182.79999999999998 C 225 182.79999999999998, 225 82.35, 250 82.35" marker-end="url(#the-msvg-package-ecosystem-d-arrow)" fill="none" stroke="#5a5a6e" stroke-width="1.5"/><rect x="192.2" y="124.57499999999999" width="65.6" height="16" rx="3" fill="#0f0f11" opacity="0.85"/><text x="225" y="137.575" text-anchor="middle" font-size="12" font-family="system-ui, -apple-system, &#39;Segoe UI&#39;, sans-serif" fill="#9090a8">validate</text><path d="M 410 82.35 C 435 82.35, 435 82.35, 460 82.35" marker-end="url(#the-msvg-package-ecosystem-d-arrow)" fill="none" stroke="#5a5a6e" stroke-width="1.5"/><rect x="409.4" y="74.35" width="51.199999999999996" height="16" rx="3" fill="#0f0f11" opacity="0.85"/><text x="435" y="87.35" text-anchor="middle" font-size="12" font-family="system-ui, -apple-system, &#39;Segoe UI&#39;, sans-serif" fill="#9090a8">render</text><path d="M 200 303.5 C 225 303.5, 225 203.04999999999998, 250 203.04999999999998" marker-end="url(#the-msvg-package-ecosystem-d-arrow)" fill="none" stroke="#5a5a6e" stroke-width="1.5"/><rect x="206.6" y="245.27499999999998" width="36.8" height="16" rx="3" fill="#0f0f11" opacity="0.85"/><text x="225" y="258.275" text-anchor="middle" font-size="12" font-family="system-ui, -apple-system, &#39;Segoe UI&#39;, sans-serif" fill="#9090a8">uses</text><path d="M 410 203.04999999999998 C 330 203.04999999999998, 330 82.35, 250 82.35" marker-end="url(#the-msvg-package-ecosystem-d-arrow)" fill="none" stroke="#5a5a6e" stroke-width="1.5"/><rect x="308" y="134.7" width="44" height="16" rx="3" fill="#0f0f11" opacity="0.85"/><text x="330" y="147.7" text-anchor="middle" font-size="12" font-family="system-ui, -apple-system, &#39;Segoe UI&#39;, sans-serif" fill="#9090a8">parse</text><path d="M 200 434.325 C 225 434.325, 225 82.35, 250 82.35" marker-end="url(#the-msvg-package-ecosystem-d-arrow)" fill="none" stroke="#5a5a6e" stroke-width="1.5"/><rect x="203" y="250.33749999999998" width="44" height="16" rx="3" fill="#0f0f11" opacity="0.85"/><text x="225" y="263.3375" text-anchor="middle" font-size="12" font-family="system-ui, -apple-system, &#39;Segoe UI&#39;, sans-serif" fill="#9090a8">parse</text><rect x="42" y="43" width="160" height="64.45" rx="10" ry="10" fill="rgba(0,0,0,0.4)" opacity="0.4"/><rect x="40" y="40" width="160" height="64.45" rx="10" ry="10" fill="#16301f" stroke="#383845" stroke-width="1.5"/><text x="120" y="67" text-anchor="middle" font-size="15" font-family="system-ui, -apple-system, &#39;Segoe UI&#39;, sans-serif" font-weight="600" fill="#e8e8f0">Markdown</text><text x="120" y="88.25" text-anchor="middle" font-size="12" font-family="system-ui, -apple-system, &#39;Segoe UI&#39;, sans-serif" font-weight="normal" fill="#9090a8">content</text><rect x="42" y="143.45" width="160" height="84.7" rx="10" ry="10" fill="rgba(0,0,0,0.4)" opacity="0.4"/><rect x="40" y="140.45" width="160" height="84.7" rx="10" ry="10" fill="#332a14" stroke="#383845" stroke-width="1.5"/><text x="120" y="167.45" text-anchor="middle" font-size="15" font-family="system-ui, -apple-system, &#39;Segoe UI&#39;, sans-serif" font-weight="600" fill="#e8e8f0">@markdown-util</text><text x="120" y="187.7" text-anchor="middle" font-size="15" font-family="system-ui, -apple-system, &#39;Segoe UI&#39;, sans-serif" font-weight="600" fill="#e8e8f0">s/msvg-cli</text><text x="120" y="208.95" text-anchor="middle" font-size="12" font-family="system-ui, -apple-system, &#39;Segoe UI&#39;, sans-serif" font-weight="normal" fill="#9090a8">build</text><rect x="252" y="43" width="160" height="84.7" rx="10" ry="10" fill="rgba(0,0,0,0.4)" opacity="0.4"/><rect x="250" y="40" width="160" height="84.7" rx="10" ry="10" fill="#1a1a1f" stroke="#383845" stroke-width="1.5"/><text x="330" y="67" text-anchor="middle" font-size="15" font-family="system-ui, -apple-system, &#39;Segoe UI&#39;, sans-serif" font-weight="600" fill="#e8e8f0">@markdown-util</text><text x="330" y="87.25" text-anchor="middle" font-size="15" font-family="system-ui, -apple-system, &#39;Segoe UI&#39;, sans-serif" font-weight="600" fill="#e8e8f0">s/msvg-core</text><text x="330" y="108.5" text-anchor="middle" font-size="12" font-family="system-ui, -apple-system, &#39;Segoe UI&#39;, sans-serif" font-weight="normal" fill="#9090a8">service</text><rect x="462" y="43" width="160" height="84.7" rx="10" ry="10" fill="rgba(0,0,0,0.4)" opacity="0.4"/><rect x="460" y="40" width="160" height="84.7" rx="10" ry="10" fill="#1e2d54" stroke="#383845" stroke-width="1.5"/><text x="540" y="67" text-anchor="middle" font-size="15" font-family="system-ui, -apple-system, &#39;Segoe UI&#39;, sans-serif" font-weight="600" fill="#e8e8f0">@markdown-util</text><text x="540" y="87.25" text-anchor="middle" font-size="15" font-family="system-ui, -apple-system, &#39;Segoe UI&#39;, sans-serif" font-weight="600" fill="#e8e8f0">s/msvg-svg</text><text x="540" y="108.5" text-anchor="middle" font-size="12" font-family="system-ui, -apple-system, &#39;Segoe UI&#39;, sans-serif" font-weight="normal" fill="#9090a8">output</text><rect x="42" y="264.15" width="160" height="84.7" rx="10" ry="10" fill="rgba(0,0,0,0.4)" opacity="0.4"/><rect x="40" y="261.15" width="160" height="84.7" rx="10" ry="10" fill="#24242b" stroke="#383845" stroke-width="1.5"/><text x="120" y="288.15" text-anchor="middle" font-size="15" font-family="system-ui, -apple-system, &#39;Segoe UI&#39;, sans-serif" font-weight="600" fill="#e8e8f0">@markdown-util</text><text x="120" y="308.4" text-anchor="middle" font-size="15" font-family="system-ui, -apple-system, &#39;Segoe UI&#39;, sans-serif" font-weight="600" fill="#e8e8f0">s/msvg-astro</text><text x="120" y="329.65" text-anchor="middle" font-size="12" font-family="system-ui, -apple-system, &#39;Segoe UI&#39;, sans-serif" font-weight="normal" fill="#9090a8">external</text><rect x="252" y="163.7" width="160" height="84.7" rx="10" ry="10" fill="rgba(0,0,0,0.4)" opacity="0.4"/><rect x="250" y="160.7" width="160" height="84.7" rx="10" ry="10" fill="#24242b" stroke="#383845" stroke-width="1.5"/><text x="330" y="187.7" text-anchor="middle" font-size="15" font-family="system-ui, -apple-system, &#39;Segoe UI&#39;, sans-serif" font-weight="600" fill="#e8e8f0">@markdown-util</text><text x="330" y="207.95" text-anchor="middle" font-size="15" font-family="system-ui, -apple-system, &#39;Segoe UI&#39;, sans-serif" font-weight="600" fill="#e8e8f0">s/msvg-remark</text><text x="330" y="229.2" text-anchor="middle" font-size="12" font-family="system-ui, -apple-system, &#39;Segoe UI&#39;, sans-serif" font-weight="normal" fill="#9090a8">external</text><rect x="42" y="384.84999999999997" width="160" height="104.95" rx="10" ry="10" fill="rgba(0,0,0,0.4)" opacity="0.4"/><rect x="40" y="381.84999999999997" width="160" height="104.95" rx="10" ry="10" fill="#24242b" stroke="#383845" stroke-width="1.5"/><text x="120" y="408.84999999999997" text-anchor="middle" font-size="15" font-family="system-ui, -apple-system, &#39;Segoe UI&#39;, sans-serif" font-weight="600" fill="#e8e8f0">@markdown-util</text><text x="120" y="429.09999999999997" text-anchor="middle" font-size="15" font-family="system-ui, -apple-system, &#39;Segoe UI&#39;, sans-serif" font-weight="600" fill="#e8e8f0">s/msvg-markdow</text><text x="120" y="449.34999999999997" text-anchor="middle" font-size="15" font-family="system-ui, -apple-system, &#39;Segoe UI&#39;, sans-serif" font-weight="600" fill="#e8e8f0">n-it</text><text x="120" y="470.59999999999997" text-anchor="middle" font-size="12" font-family="system-ui, -apple-system, &#39;Segoe UI&#39;, sans-serif" font-weight="normal" fill="#9090a8">external</text></svg>
