<svg xmlns="http://www.w3.org/2000/svg" viewBox="0 0 660 445.79999999999995" width="660" height="445.79999999999995" role="img" aria-labelledby="the-msvg-package-ecosystem-d-title the-msvg-package-ecosystem-d-desc"><title id="the-msvg-package-ecosystem-d-title">The MSVG package ecosystem</title><desc id="the-msvg-package-ecosystem-d-desc">How the MSVG packages connect, from authoring through rendering to integrations.</desc><rect width="660" height="445.79999999999995" fill="#f5f5f5"/><defs><marker id="the-msvg-package-ecosystem-d-arrow" markerWidth="8" markerHeight="8" refX="6" refY="3" orient="auto"><path d="M0,0 L0,6 L8,3 z" fill="#888888"/></marker></defs><rect x="20" y="20" width="200" height="204.89999999999998" rx="14" ry="14" fill="#ebebeb" stroke="#cccccc" stroke-width="1.5" stroke-dasharray="6,4"/><text x="32" y="36" font-size="12" font-family="system-ui, -apple-system, &#39;Segoe UI&#39;, sans-serif" fill="#555555" font-weight="600">Authoring</text><rect x="230" y="20" width="410" height="104.45" rx="14" ry="14" fill="#ebebeb" stroke="#cccccc" stroke-width="1.5" stroke-dasharray="6,4"/><text x="242" y="36" font-size="12" font-family="system-ui, -apple-system, &#39;Segoe UI&#39;, sans-serif" fill="#555555" font-weight="600">Rendering</text><rect x="20" y="120.44999999999999" width="410" height="305.34999999999997" rx="14" ry="14" fill="#ebebeb" stroke="#cccccc" stroke-width="1.5" stroke-dasharray="6,4"/><text x="32" y="136.45" font-size="12" font-family="system-ui, -apple-system, &#39;Segoe UI&#39;, sans-serif" fill="#555555" font-weight="600">Integrations</text><path d="M 200 72.225 C 225 72.225, 225 72.225, 250 72.225" marker-end="url(#the-msvg-package-ecosystem-d-arrow)" fill="none" stroke="#888888" stroke-width="1.5"/><rect x="203" y="64.225" width="44" height="16" rx="3" fill="#f5f5f5" opacity="0.85"/><text x="225" y="77.225" text-anchor="middle" font-size="12" font-family="system-ui, -apple-system, &#39;Segoe UI&#39;, sans-serif" fill="#555555">parse</text><path d="M 200 172.67499999999998 C 225 172.67499999999998, 225 72.225, 250 72.225" marker-end="url(#the-msvg-package-ecosystem-d-arrow)" fill="none" stroke="#888888" stroke-width="1.5"/><rect x="192.2" y="114.44999999999999" width="65.6" height="16" rx="3" fill="#f5f5f5" opacity="0.85"/><text x="225" y="127.44999999999999" text-anchor="middle" font-size="12" font-family="system-ui, -apple-system, &#39;Segoe UI&#39;, sans-serif" fill="#555555">validate</text><path d="M 410 72.225 C 435 72.225, 435 72.225, 460 72.225" marker-end="url(#the-msvg-package-ecosystem-d-arrow)" fill="none" stroke="#888888" stroke-width="1.5"/><rect x="409.4" y="64.225" width="51.199999999999996" height="16" rx="3" fill="#f5f5f5" opacity="0.85"/><text x="435" y="77.225" text-anchor="middle" font-size="12" font-family="system-ui, -apple-system, &#39;Segoe UI&#39;, sans-serif" fill="#555555">render</text><path d="M 200 273.125 C 225 273.125, 225 172.67499999999998, 250 172.67499999999998" marker-end="url(#the-msvg-package-ecosystem-d-arrow)" fill="none" stroke="#888888" stroke-width="1.5"/><rect x="206.6" y="214.89999999999998" width="36.8" height="16" rx="3" fill="#f5f5f5" opacity="0.85"/><text x="225" y="227.89999999999998" text-anchor="middle" font-size="12" font-family="system-ui, -apple-system, &#39;Segoe UI&#39;, sans-serif" fill="#555555">uses</text><path d="M 410 172.67499999999998 C 330 172.67499999999998, 330 72.225, 250 72.225" marker-end="url(#the-msvg-package-ecosystem-d-arrow)" fill="none" stroke="#888888" stroke-width="1.5"/><rect x="308" y="114.44999999999999" width="44" height="16" rx="3" fill="#f5f5f5" opacity="0.85"/><text x="330" y="127.44999999999999" text-anchor="middle" font-size="12" font-family="system-ui, -apple-system, &#39;Segoe UI&#39;, sans-serif" fill="#555555">parse</text><path d="M 200 373.575 C 225 373.575, 225 72.225, 250 72.225" marker-end="url(#the-msvg-package-ecosystem-d-arrow)" fill="none" stroke="#888888" stroke-width="1.5"/><rect x="203" y="214.89999999999998" width="44" height="16" rx="3" fill="#f5f5f5" opacity="0.85"/><text x="225" y="227.89999999999998" text-anchor="middle" font-size="12" font-family="system-ui, -apple-system, &#39;Segoe UI&#39;, sans-serif" fill="#555555">parse</text><rect x="40" y="40" width="160" height="64.45" rx="10" ry="10" fill="#e8f5ee" stroke="#cccccc" stroke-width="1.5"/><text x="120" y="67" text-anchor="middle" font-size="15" font-family="system-ui, -apple-system, &#39;Segoe UI&#39;, sans-serif" font-weight="600" fill="#111111">Markdown</text><text x="120" y="88.25" text-anchor="middle" font-size="12" font-family="system-ui, -apple-system, &#39;Segoe UI&#39;, sans-serif" font-weight="normal" fill="#555555">content</text><rect x="40" y="140.45" width="160" height="64.45" rx="10" ry="10" fill="#fff8e8" stroke="#cccccc" stroke-width="1.5"/><text x="120" y="167.45" text-anchor="middle" font-size="15" font-family="system-ui, -apple-system, &#39;Segoe UI&#39;, sans-serif" font-weight="600" fill="#111111">@msvg/cli</text><text x="120" y="188.7" text-anchor="middle" font-size="12" font-family="system-ui, -apple-system, &#39;Segoe UI&#39;, sans-serif" font-weight="normal" fill="#555555">build</text><rect x="250" y="40" width="160" height="64.45" rx="10" ry="10" fill="#ffffff" stroke="#cccccc" stroke-width="1.5"/><text x="330" y="67" text-anchor="middle" font-size="15" font-family="system-ui, -apple-system, &#39;Segoe UI&#39;, sans-serif" font-weight="600" fill="#111111">@msvg/core</text><text x="330" y="88.25" text-anchor="middle" font-size="12" font-family="system-ui, -apple-system, &#39;Segoe UI&#39;, sans-serif" font-weight="normal" fill="#555555">service</text><rect x="460" y="40" width="160" height="64.45" rx="10" ry="10" fill="#dce8ff" stroke="#cccccc" stroke-width="1.5"/><text x="540" y="67" text-anchor="middle" font-size="15" font-family="system-ui, -apple-system, &#39;Segoe UI&#39;, sans-serif" font-weight="600" fill="#111111">@msvg/svg</text><text x="540" y="88.25" text-anchor="middle" font-size="12" font-family="system-ui, -apple-system, &#39;Segoe UI&#39;, sans-serif" font-weight="normal" fill="#555555">output</text><rect x="40" y="240.89999999999998" width="160" height="64.45" rx="10" ry="10" fill="#ebebeb" stroke="#cccccc" stroke-width="1.5"/><text x="120" y="267.9" text-anchor="middle" font-size="15" font-family="system-ui, -apple-system, &#39;Segoe UI&#39;, sans-serif" font-weight="600" fill="#111111">@msvg/astro</text><text x="120" y="289.15" text-anchor="middle" font-size="12" font-family="system-ui, -apple-system, &#39;Segoe UI&#39;, sans-serif" font-weight="normal" fill="#555555">external</text><rect x="250" y="140.45" width="160" height="64.45" rx="10" ry="10" fill="#ebebeb" stroke="#cccccc" stroke-width="1.5"/><text x="330" y="167.45" text-anchor="middle" font-size="15" font-family="system-ui, -apple-system, &#39;Segoe UI&#39;, sans-serif" font-weight="600" fill="#111111">@msvg/remark</text><text x="330" y="188.7" text-anchor="middle" font-size="12" font-family="system-ui, -apple-system, &#39;Segoe UI&#39;, sans-serif" font-weight="normal" fill="#555555">external</text><rect x="40" y="341.34999999999997" width="160" height="64.45" rx="10" ry="10" fill="#ebebeb" stroke="#cccccc" stroke-width="1.5"/><text x="120" y="368.34999999999997" text-anchor="middle" font-size="15" font-family="system-ui, -apple-system, &#39;Segoe UI&#39;, sans-serif" font-weight="600" fill="#111111">@msvg/markdown-it</text><text x="120" y="389.59999999999997" text-anchor="middle" font-size="12" font-family="system-ui, -apple-system, &#39;Segoe UI&#39;, sans-serif" font-weight="normal" fill="#555555">external</text></svg>
