<svg xmlns="http://www.w3.org/2000/svg" viewBox="0 0 1008 148.65" width="1008" height="148.65" role="img" aria-labelledby="how-msvg-renders-a-diagram-d-title how-msvg-renders-a-diagram-d-desc"><title id="how-msvg-renders-a-diagram-d-title">How MSVG renders a diagram</title><desc id="how-msvg-renders-a-diagram-d-desc">Author text flows through parsing and layout into a static, accessible SVG asset.</desc><rect width="1008" height="148.65" fill="#faf9f7"/><defs><marker id="how-msvg-renders-a-diagram-d-arrow" markerWidth="8" markerHeight="8" refX="6" refY="3" orient="auto"><path d="M0,0 L0,6 L8,3 z" fill="#9e9790"/></marker></defs><g><path d="M 232 66.225 C 256 66.225, 256 66.225, 280 66.225" marker-end="url(#how-msvg-renders-a-diagram-d-arrow)" fill="none" stroke="#9e9790" stroke-width="1.5"/><rect x="237.6" y="56.12499999999999" width="36.8" height="20.200000000000003" rx="4" fill="#faf9f7" opacity="0.85"/><text x="256" y="72.225" text-anchor="middle" font-size="12" font-family="system-ui, -apple-system, &#39;Segoe UI&#39;, sans-serif" fill="#6b6660">read</text><path d="M 480 66.225 C 504 66.225, 504 66.225, 528 66.225" marker-end="url(#how-msvg-renders-a-diagram-d-arrow)" fill="none" stroke="#9e9790" stroke-width="1.5"/><rect x="471.2" y="56.12499999999999" width="65.6" height="20.200000000000003" rx="4" fill="#faf9f7" opacity="0.85"/><text x="504" y="72.225" text-anchor="middle" font-size="12" font-family="system-ui, -apple-system, &#39;Segoe UI&#39;, sans-serif" fill="#6b6660">validate</text><path d="M 728 66.225 C 752 66.225, 752 74.325, 776 74.325" marker-end="url(#how-msvg-renders-a-diagram-d-arrow)" fill="none" stroke="#9e9790" stroke-width="1.5"/><rect x="730" y="60.175000000000004" width="44" height="20.200000000000003" rx="4" fill="#faf9f7" opacity="0.85"/><text x="752" y="76.275" text-anchor="middle" font-size="12" font-family="system-ui, -apple-system, &#39;Segoe UI&#39;, sans-serif" fill="#6b6660">write</text></g><g><rect x="34" y="35" width="200" height="68.45" rx="14" ry="14" fill="rgba(0,0,0,0.08)" opacity="0.4"/><rect x="32" y="32" width="200" height="68.45" rx="14" ry="14" fill="#dce5f5" stroke="#3d5a99" stroke-width="1.5"/><text x="132" y="61" text-anchor="middle" font-size="15" font-family="system-ui, -apple-system, &#39;Segoe UI&#39;, sans-serif" font-weight="600" fill="#1a1917">Markdown</text><text x="132" y="82.25" text-anchor="middle" font-size="12" font-family="system-ui, -apple-system, &#39;Segoe UI&#39;, sans-serif" font-weight="normal" fill="#6b6660">An msvg code block</text><rect x="282" y="35" width="200" height="68.45" rx="14" ry="14" fill="rgba(0,0,0,0.08)" opacity="0.4"/><rect x="280" y="32" width="200" height="68.45" rx="14" ry="14" fill="#ffffff" stroke="#d4cfc8" stroke-width="1.5"/><text x="380" y="61" text-anchor="middle" font-size="15" font-family="system-ui, -apple-system, &#39;Segoe UI&#39;, sans-serif" font-weight="600" fill="#1a1917">@msvg/core</text><text x="380" y="82.25" text-anchor="middle" font-size="12" font-family="system-ui, -apple-system, &#39;Segoe UI&#39;, sans-serif" font-weight="normal" fill="#6b6660">Parse and validate</text><rect x="530" y="35" width="200" height="68.45" rx="14" ry="14" fill="rgba(0,0,0,0.08)" opacity="0.4"/><rect x="528" y="32" width="200" height="68.45" rx="14" ry="14" fill="#ffffff" stroke="#d4cfc8" stroke-width="1.5"/><text x="628" y="61" text-anchor="middle" font-size="15" font-family="system-ui, -apple-system, &#39;Segoe UI&#39;, sans-serif" font-weight="600" fill="#1a1917">@msvg/svg</text><text x="628" y="82.25" text-anchor="middle" font-size="12" font-family="system-ui, -apple-system, &#39;Segoe UI&#39;, sans-serif" font-weight="normal" fill="#6b6660">Layout and render</text><rect x="778" y="35" width="200" height="84.65" rx="14" ry="14" fill="rgba(0,0,0,0.08)" opacity="0.4"/><rect x="776" y="32" width="200" height="84.65" rx="14" ry="14" fill="#dce5f5" stroke="#3d5a99" stroke-width="1.5"/><text x="876" y="61" text-anchor="middle" font-size="15" font-family="system-ui, -apple-system, &#39;Segoe UI&#39;, sans-serif" font-weight="600" fill="#1a1917">SVG asset</text><text x="876" y="82.25" text-anchor="middle" font-size="12" font-family="system-ui, -apple-system, &#39;Segoe UI&#39;, sans-serif" font-weight="normal" fill="#6b6660">Static accessible</text><text x="876" y="98.45" text-anchor="middle" font-size="12" font-family="system-ui, -apple-system, &#39;Segoe UI&#39;, sans-serif" font-weight="normal" fill="#6b6660">image</text></g></svg>
