<svg xmlns="http://www.w3.org/2000/svg" viewBox="0 0 1120 354" width="1120" height="354" role="img" aria-labelledby="rendering-a-post-with-msvg-d-title rendering-a-post-with-msvg-d-desc"><title id="rendering-a-post-with-msvg-d-title">Rendering a post with MSVG</title><desc id="rendering-a-post-with-msvg-d-desc">The interaction between an author, the Markdown file, the build, and the reader&#39;s browser.</desc><rect width="1120" height="354" fill="#0f0f11"/><defs><marker id="rendering-a-post-with-msvg-d-arrow" markerWidth="8" markerHeight="8" refX="6" refY="3" orient="auto"><path d="M0,0 L0,6 L8,3 z" fill="#5a5a6e"/></marker></defs><rect x="40" y="40" width="160" height="44" rx="8" ry="8" fill="#7a9ef5" stroke="#7a9ef5" stroke-width="2"/><text x="120" y="67" text-anchor="middle" font-size="15" font-family="system-ui, -apple-system, &#39;Segoe UI&#39;, sans-serif" font-weight="600" fill="#0f0f11">Author</text><rect x="280" y="40" width="160" height="44" rx="8" ry="8" fill="#7a9ef5" stroke="#7a9ef5" stroke-width="2"/><text x="360" y="67" text-anchor="middle" font-size="15" font-family="system-ui, -apple-system, &#39;Segoe UI&#39;, sans-serif" font-weight="600" fill="#0f0f11">Markdown file</text><rect x="520" y="40" width="160" height="44" rx="8" ry="8" fill="#7a9ef5" stroke="#7a9ef5" stroke-width="2"/><text x="600" y="67" text-anchor="middle" font-size="15" font-family="system-ui, -apple-system, &#39;Segoe UI&#39;, sans-serif" font-weight="600" fill="#0f0f11">Static build</text><rect x="760" y="40" width="160" height="44" rx="8" ry="8" fill="#7a9ef5" stroke="#7a9ef5" stroke-width="2"/><text x="840" y="67" text-anchor="middle" font-size="15" font-family="system-ui, -apple-system, &#39;Segoe UI&#39;, sans-serif" font-weight="600" fill="#0f0f11">Browser</text><line x1="120" y1="84" x2="120" y2="314" stroke="#383845" stroke-width="1.5" stroke-dasharray="6,4"/><line x1="360" y1="84" x2="360" y2="314" stroke="#383845" stroke-width="1.5" stroke-dasharray="6,4"/><line x1="600" y1="84" x2="600" y2="314" stroke="#383845" stroke-width="1.5" stroke-dasharray="6,4"/><line x1="840" y1="84" x2="840" y2="314" stroke="#383845" stroke-width="1.5" stroke-dasharray="6,4"/><path d="M 120 134 L 352 134" marker-end="url(#rendering-a-post-with-msvg-d-arrow)" fill="none" stroke="#5a5a6e" stroke-width="1.5"/><rect x="164" y="110" width="152" height="16" rx="3" fill="#0f0f11" opacity="0.9"/><text x="240" y="124" text-anchor="middle" font-size="12" font-family="system-ui, -apple-system, &#39;Segoe UI&#39;, sans-serif" fill="#9090a8">writes an msvg block</text><path d="M 360 184 L 592 184" marker-end="url(#rendering-a-post-with-msvg-d-arrow)" fill="none" stroke="#5a5a6e" stroke-width="1.5"/><rect x="407.6" y="160" width="144.79999999999998" height="16" rx="3" fill="#0f0f11" opacity="0.9"/><text x="480" y="174" text-anchor="middle" font-size="12" font-family="system-ui, -apple-system, &#39;Segoe UI&#39;, sans-serif" fill="#9090a8">build reads content</text><path d="M 600 224 C 650 224, 650 244, 600 244" marker-end="url(#rendering-a-post-with-msvg-d-arrow)" fill="none" stroke="#5a5a6e" stroke-width="1.5"/><rect x="567.6" y="218" width="144.79999999999998" height="16" rx="3" fill="#0f0f11" opacity="0.9"/><text x="640" y="232" text-anchor="middle" font-size="12" font-family="system-ui, -apple-system, &#39;Segoe UI&#39;, sans-serif" fill="#9090a8">generates SVG asset</text><path d="M 600 284 L 832 284" marker-end="url(#rendering-a-post-with-msvg-d-arrow)" fill="none" stroke="#5a5a6e" stroke-width="1.5"/><rect x="640.4" y="260" width="159.2" height="16" rx="3" fill="#0f0f11" opacity="0.9"/><text x="720" y="274" text-anchor="middle" font-size="12" font-family="system-ui, -apple-system, &#39;Segoe UI&#39;, sans-serif" fill="#9090a8">serves HTML and image</text><rect x="40" y="314" width="160" height="44" rx="8" ry="8" fill="#7a9ef5" stroke="#7a9ef5" stroke-width="2"/><text x="120" y="341" text-anchor="middle" font-size="15" font-family="system-ui, -apple-system, &#39;Segoe UI&#39;, sans-serif" font-weight="600" fill="#0f0f11">Author</text><rect x="280" y="314" width="160" height="44" rx="8" ry="8" fill="#7a9ef5" stroke="#7a9ef5" stroke-width="2"/><text x="360" y="341" text-anchor="middle" font-size="15" font-family="system-ui, -apple-system, &#39;Segoe UI&#39;, sans-serif" font-weight="600" fill="#0f0f11">Markdown file</text><rect x="520" y="314" width="160" height="44" rx="8" ry="8" fill="#7a9ef5" stroke="#7a9ef5" stroke-width="2"/><text x="600" y="341" text-anchor="middle" font-size="15" font-family="system-ui, -apple-system, &#39;Segoe UI&#39;, sans-serif" font-weight="600" fill="#0f0f11">Static build</text><rect x="760" y="314" width="160" height="44" rx="8" ry="8" fill="#7a9ef5" stroke="#7a9ef5" stroke-width="2"/><text x="840" y="341" text-anchor="middle" font-size="15" font-family="system-ui, -apple-system, &#39;Segoe UI&#39;, sans-serif" font-weight="600" fill="#0f0f11">Browser</text></svg>
